<svg width="1421" height="82" viewBox="0 0 1421 82" fill="none" xmlns="http://www.w3.org/2000/svg">
<path d="M25.001 62H16.091V11.699H0.053V4.166H40.958V11.699H25.001V62ZM58.6995 17.531C63.8295 17.531 67.6905 18.746 70.2825 21.176C72.9285 23.552 74.2515 27.305 74.2515 32.435V62H68.0145L66.3135 55.925H65.9895C64.7475 57.491 63.5055 58.787 62.2635 59.813C61.0755 60.839 59.6715 61.595 58.0515 62.081C56.4855 62.567 54.5415 62.81 52.2195 62.81C49.7895 62.81 47.6025 62.351 45.6585 61.433C43.7145 60.461 42.1755 59.003 41.0415 57.059C39.9075 55.061 39.3405 52.577 39.3405 49.607C39.3405 45.179 40.9065 41.804 44.0385 39.482C47.2245 37.16 52.0575 35.891 58.5375 35.675L65.5035 35.432V33.002C65.5035 29.762 64.8285 27.494 63.4785 26.198C62.1825 24.902 60.3465 24.254 57.9705 24.254C55.9725 24.254 54.0015 24.578 52.0575 25.226C50.1135 25.874 48.2235 26.657 46.3875 27.575L43.7145 21.338C45.7125 20.258 47.9805 19.367 50.5185 18.665C53.1105 17.909 55.8375 17.531 58.6995 17.531ZM60.2385 41.183C55.8105 41.399 52.7325 42.236 51.0045 43.694C49.2765 45.098 48.4125 47.096 48.4125 49.688C48.4125 51.956 49.0065 53.603 50.1945 54.629C51.4365 55.655 53.0295 56.168 54.9735 56.168C57.9435 56.168 60.4275 55.223 62.4255 53.333C64.4775 51.443 65.5035 48.608 65.5035 44.828V41.021L60.2385 41.183ZM100.489 17.531C103.135 17.531 105.484 18.071 107.536 19.151C109.642 20.231 111.424 21.878 112.882 24.092H113.206L114.178 18.341H121.387V62.567C121.387 66.671 120.685 70.127 119.281 72.935C117.877 75.743 115.744 77.849 112.882 79.253C110.02 80.711 106.402 81.44 102.028 81.44C99.0042 81.44 96.2502 81.224 93.7662 80.792C91.3362 80.36 89.0682 79.685 86.9622 78.767V71.234C88.3662 71.99 89.8782 72.611 91.4982 73.097C93.1182 73.637 94.8192 74.015 96.6012 74.231C98.4372 74.501 100.327 74.636 102.271 74.636C105.619 74.636 108.184 73.61 109.966 71.558C111.802 69.56 112.72 66.725 112.72 63.053V61.595C112.72 60.893 112.747 59.975 112.801 58.841C112.855 57.653 112.909 56.789 112.963 56.249H112.639C111.289 58.517 109.588 60.191 107.536 61.271C105.538 62.297 103.162 62.81 100.408 62.81C95.3322 62.81 91.3362 60.839 88.4202 56.897C85.5042 52.901 84.0462 47.366 84.0462 40.292C84.0462 35.54 84.6942 31.49 85.9902 28.142C87.3402 24.74 89.2302 22.121 91.6602 20.285C94.1442 18.449 97.0872 17.531 100.489 17.531ZM102.595 24.659C100.543 24.659 98.8152 25.28 97.4112 26.522C96.0072 27.71 94.9272 29.465 94.1712 31.787C93.4692 34.109 93.1182 36.971 93.1182 40.373C93.1182 45.449 93.9282 49.31 95.5482 51.956C97.1682 54.602 99.5442 55.925 102.676 55.925C104.512 55.925 106.078 55.655 107.374 55.115C108.67 54.575 109.723 53.738 110.533 52.604C111.397 51.47 112.018 50.039 112.396 48.311C112.828 46.529 113.044 44.396 113.044 41.912V40.292C113.044 36.566 112.666 33.569 111.91 31.301C111.208 28.979 110.074 27.305 108.508 26.279C106.996 25.199 105.025 24.659 102.595 24.659ZM197.292 62H188.301V35.594H163.353V62H154.362V4.166H163.353V28.142H188.301V4.166H197.292V62ZM227.107 17.531C230.725 17.531 233.857 18.341 236.503 19.961C239.149 21.527 241.174 23.795 242.578 26.765C244.036 29.735 244.765 33.245 244.765 37.295V41.993H217.306C217.414 46.475 218.494 49.904 220.546 52.28C222.598 54.656 225.487 55.844 229.213 55.844C231.859 55.844 234.208 55.601 236.26 55.115C238.366 54.575 240.499 53.792 242.659 52.766V59.894C240.607 60.866 238.501 61.595 236.341 62.081C234.235 62.567 231.67 62.81 228.646 62.81C224.704 62.81 221.194 61.973 218.116 60.299C215.038 58.625 212.635 56.141 210.907 52.847C209.179 49.499 208.315 45.395 208.315 40.535C208.315 35.621 209.098 31.463 210.664 28.061C212.23 24.659 214.417 22.067 217.225 20.285C220.087 18.449 223.381 17.531 227.107 17.531ZM227.107 24.173C224.353 24.173 222.139 25.172 220.465 27.17C218.791 29.168 217.819 32.003 217.549 35.675H236.098C236.098 33.407 235.774 31.409 235.126 29.681C234.478 27.953 233.479 26.603 232.129 25.631C230.833 24.659 229.159 24.173 227.107 24.173ZM290.446 18.341V62H283.561L282.346 56.249H281.86C281.05 57.761 279.943 59.003 278.539 59.975C277.189 60.947 275.704 61.649 274.084 62.081C272.464 62.567 270.79 62.81 269.062 62.81C265.876 62.81 263.176 62.27 260.962 61.19C258.802 60.056 257.128 58.328 255.94 56.006C254.806 53.63 254.239 50.606 254.239 46.934V18.341H263.068V45.638C263.068 49.04 263.716 51.578 265.012 53.252C266.308 54.926 268.333 55.763 271.087 55.763C273.787 55.763 275.893 55.169 277.405 53.981C278.971 52.793 280.078 51.065 280.726 48.797C281.374 46.475 281.698 43.694 281.698 40.454V18.341H290.446ZM319.26 17.531C322.878 17.531 326.01 18.341 328.656 19.961C331.302 21.527 333.327 23.795 334.731 26.765C336.189 29.735 336.918 33.245 336.918 37.295V41.993H309.459C309.567 46.475 310.647 49.904 312.699 52.28C314.751 54.656 317.64 55.844 321.366 55.844C324.012 55.844 326.361 55.601 328.413 55.115C330.519 54.575 332.652 53.792 334.812 52.766V59.894C332.76 60.866 330.654 61.595 328.494 62.081C326.388 62.567 323.823 62.81 320.799 62.81C316.857 62.81 313.347 61.973 310.269 60.299C307.191 58.625 304.788 56.141 303.06 52.847C301.332 49.499 300.468 45.395 300.468 40.535C300.468 35.621 301.251 31.463 302.817 28.061C304.383 24.659 306.57 22.067 309.378 20.285C312.24 18.449 315.534 17.531 319.26 17.531ZM319.26 24.173C316.506 24.173 314.292 25.172 312.618 27.17C310.944 29.168 309.972 32.003 309.702 35.675H328.251C328.251 33.407 327.927 31.409 327.279 29.681C326.631 27.953 325.632 26.603 324.282 25.631C322.986 24.659 321.312 24.173 319.26 24.173ZM367.534 17.531C368.236 17.531 369.019 17.585 369.883 17.693C370.747 17.747 371.476 17.828 372.07 17.936L371.179 25.955C370.585 25.793 369.91 25.658 369.154 25.55C368.398 25.442 367.642 25.388 366.886 25.388C365.428 25.388 364.024 25.712 362.674 26.36C361.324 26.954 360.109 27.845 359.029 29.033C357.949 30.167 357.085 31.571 356.437 33.245C355.789 34.919 355.465 36.836 355.465 38.996V62H346.717V18.341H353.602L354.736 26.117H355.222C356.032 24.551 357.031 23.12 358.219 21.824C359.461 20.528 360.865 19.502 362.431 18.746C363.997 17.936 365.698 17.531 367.534 17.531ZM419.085 62H410.175V11.699H394.137V4.166H435.042V11.699H419.085V62ZM473.664 40.13C473.664 43.748 473.205 46.961 472.287 49.769C471.369 52.577 470.046 54.953 468.318 56.897C466.644 58.841 464.592 60.326 462.162 61.352C459.732 62.324 457.005 62.81 453.981 62.81C451.227 62.81 448.662 62.324 446.286 61.352C443.91 60.326 441.858 58.841 440.13 56.897C438.402 54.953 437.052 52.577 436.08 49.769C435.162 46.961 434.703 43.721 434.703 40.049C434.703 35.243 435.486 31.166 437.052 27.818C438.618 24.47 440.859 21.932 443.775 20.204C446.745 18.422 450.255 17.531 454.305 17.531C458.085 17.531 461.433 18.422 464.349 20.204C467.265 21.932 469.533 24.47 471.153 27.818C472.827 31.166 473.664 35.27 473.664 40.13ZM443.775 40.13C443.775 43.37 444.126 46.178 444.828 48.554C445.584 50.876 446.718 52.658 448.23 53.9C449.796 55.142 451.767 55.763 454.143 55.763C456.573 55.763 458.544 55.142 460.056 53.9C461.622 52.658 462.756 50.876 463.458 48.554C464.214 46.178 464.592 43.37 464.592 40.13C464.592 36.782 464.214 33.974 463.458 31.706C462.702 29.438 461.568 27.71 460.056 26.522C458.544 25.28 456.546 24.659 454.062 24.659C450.444 24.659 447.825 26.009 446.205 28.709C444.585 31.409 443.775 35.216 443.775 40.13ZM519.524 18.341V62H512.639L511.424 56.249H510.938C510.128 57.761 509.021 59.003 507.617 59.975C506.267 60.947 504.782 61.649 503.162 62.081C501.542 62.567 499.868 62.81 498.14 62.81C494.954 62.81 492.254 62.27 490.04 61.19C487.88 60.056 486.206 58.328 485.018 56.006C483.884 53.63 483.317 50.606 483.317 46.934V18.341H492.146V45.638C492.146 49.04 492.794 51.578 494.09 53.252C495.386 54.926 497.411 55.763 500.165 55.763C502.865 55.763 504.971 55.169 506.483 53.981C508.049 52.793 509.156 51.065 509.804 48.797C510.452 46.475 510.776 43.694 510.776 40.454V18.341H519.524ZM552.631 17.531C553.333 17.531 554.116 17.585 554.98 17.693C555.844 17.747 556.573 17.828 557.167 17.936L556.276 25.955C555.682 25.793 555.007 25.658 554.251 25.55C553.495 25.442 552.739 25.388 551.983 25.388C550.525 25.388 549.121 25.712 547.771 26.36C546.421 26.954 545.206 27.845 544.126 29.033C543.046 30.167 542.182 31.571 541.534 33.245C540.886 34.919 540.562 36.836 540.562 38.996V62H531.814V18.341H538.699L539.833 26.117H540.319C541.129 24.551 542.128 23.12 543.316 21.824C544.558 20.528 545.962 19.502 547.528 18.746C549.094 17.936 550.795 17.531 552.631 17.531ZM573.31 15.263C573.31 17.045 573.256 18.746 573.148 20.366C573.094 21.932 573.013 23.174 572.905 24.092H573.31C574.444 22.256 575.983 20.717 577.927 19.475C579.925 18.233 582.463 17.612 585.541 17.612C590.455 17.612 594.397 19.502 597.367 23.282C600.391 27.062 601.903 32.678 601.903 40.13C601.903 45.152 601.228 49.337 599.878 52.685C598.528 56.033 596.611 58.571 594.127 60.299C591.643 61.973 588.754 62.81 585.46 62.81C582.328 62.81 579.79 62.216 577.846 61.028C575.956 59.786 574.444 58.328 573.31 56.654H572.662L571.123 62H564.562V0.439996H573.31V15.263ZM583.273 24.578C580.843 24.578 578.899 25.118 577.441 26.198C575.983 27.278 574.93 28.925 574.282 31.139C573.634 33.353 573.31 36.161 573.31 39.563V40.211C573.31 45.233 574.012 49.094 575.416 51.794C576.874 54.44 579.574 55.763 583.516 55.763C586.594 55.763 588.916 54.413 590.482 51.713C592.102 49.013 592.912 45.125 592.912 40.049C592.912 34.919 592.102 31.058 590.482 28.466C588.916 25.874 586.513 24.578 583.273 24.578ZM620.773 18.341V62H611.944V18.341H620.773ZM616.48 1.736C617.776 1.736 618.91 2.114 619.882 2.87C620.854 3.626 621.34 4.895 621.34 6.677C621.34 8.405 620.854 9.674 619.882 10.484C618.91 11.24 617.776 11.618 616.48 11.618C615.076 11.618 613.888 11.24 612.916 10.484C611.944 9.674 611.458 8.405 611.458 6.677C611.458 4.895 611.944 3.626 612.916 2.87C613.888 2.114 615.076 1.736 616.48 1.736ZM641.812 62H633.064V0.439996H641.812V62ZM662.853 62H654.105V0.439996H662.853V62ZM711.839 40.13C711.839 43.748 711.38 46.961 710.462 49.769C709.544 52.577 708.221 54.953 706.493 56.897C704.819 58.841 702.767 60.326 700.337 61.352C697.907 62.324 695.18 62.81 692.156 62.81C689.402 62.81 686.837 62.324 684.461 61.352C682.085 60.326 680.033 58.841 678.305 56.897C676.577 54.953 675.227 52.577 674.255 49.769C673.337 46.961 672.878 43.721 672.878 40.049C672.878 35.243 673.661 31.166 675.227 27.818C676.793 24.47 679.034 21.932 681.95 20.204C684.92 18.422 688.43 17.531 692.48 17.531C696.26 17.531 699.608 18.422 702.524 20.204C705.44 21.932 707.708 24.47 709.328 27.818C711.002 31.166 711.839 35.27 711.839 40.13ZM681.95 40.13C681.95 43.37 682.301 46.178 683.003 48.554C683.759 50.876 684.893 52.658 686.405 53.9C687.971 55.142 689.942 55.763 692.318 55.763C694.748 55.763 696.719 55.142 698.231 53.9C699.797 52.658 700.931 50.876 701.633 48.554C702.389 46.178 702.767 43.37 702.767 40.13C702.767 36.782 702.389 33.974 701.633 31.706C700.877 29.438 699.743 27.71 698.231 26.522C696.719 25.28 694.721 24.659 692.237 24.659C688.619 24.659 686 26.009 684.38 28.709C682.76 31.409 681.95 35.216 681.95 40.13ZM743.2 17.531C747.952 17.531 751.597 18.8 754.135 21.338C756.727 23.876 758.023 27.953 758.023 33.569V62H749.275V34.784C749.275 31.382 748.6 28.844 747.25 27.17C745.954 25.442 743.929 24.578 741.175 24.578C737.125 24.578 734.344 25.901 732.832 28.547C731.32 31.193 730.564 35 730.564 39.968V62H721.816V18.341H728.701L729.916 24.173H730.402C731.32 22.661 732.427 21.419 733.723 20.447C735.019 19.475 736.477 18.746 738.097 18.26C739.717 17.774 741.418 17.531 743.2 17.531ZM806.368 4.166C811.012 4.166 814.846 4.787 817.87 6.029C820.894 7.271 823.135 9.134 824.592 11.618C826.105 14.048 826.861 17.126 826.861 20.852C826.861 23.822 826.348 26.333 825.321 28.385C824.35 30.383 823.054 32.03 821.434 33.326C819.868 34.568 818.167 35.567 816.331 36.323L831.64 62H821.434L808.555 38.591H799.726V62H790.735V4.166H806.368ZM805.963 11.618H799.726V31.301H806.125C808.771 31.301 810.931 30.923 812.605 30.167C814.333 29.411 815.602 28.277 816.412 26.765C817.276 25.253 817.708 23.39 817.708 21.176C817.708 18.854 817.276 17.018 816.412 15.668C815.602 14.264 814.306 13.238 812.524 12.59C810.796 11.942 808.609 11.618 805.963 11.618ZM875.105 40.13C875.105 43.748 874.646 46.961 873.728 49.769C872.81 52.577 871.487 54.953 869.759 56.897C868.085 58.841 866.033 60.326 863.603 61.352C861.173 62.324 858.446 62.81 855.422 62.81C852.668 62.81 850.103 62.324 847.727 61.352C845.351 60.326 843.299 58.841 841.571 56.897C839.843 54.953 838.493 52.577 837.521 49.769C836.603 46.961 836.144 43.721 836.144 40.049C836.144 35.243 836.927 31.166 838.493 27.818C840.059 24.47 842.3 21.932 845.216 20.204C848.186 18.422 851.696 17.531 855.746 17.531C859.526 17.531 862.874 18.422 865.79 20.204C868.706 21.932 870.974 24.47 872.594 27.818C874.268 31.166 875.105 35.27 875.105 40.13ZM845.216 40.13C845.216 43.37 845.567 46.178 846.269 48.554C847.025 50.876 848.159 52.658 849.671 53.9C851.237 55.142 853.208 55.763 855.584 55.763C858.014 55.763 859.985 55.142 861.497 53.9C863.063 52.658 864.197 50.876 864.899 48.554C865.655 46.178 866.033 43.37 866.033 40.13C866.033 36.782 865.655 33.974 864.899 31.706C864.143 29.438 863.009 27.71 861.497 26.522C859.985 25.28 857.987 24.659 855.503 24.659C851.885 24.659 849.266 26.009 847.646 28.709C846.026 31.409 845.216 35.216 845.216 40.13ZM912.865 49.688C912.865 52.55 912.217 54.953 910.921 56.897C909.625 58.841 907.735 60.326 905.251 61.352C902.767 62.324 899.716 62.81 896.098 62.81C893.236 62.81 890.725 62.567 888.565 62.081C886.459 61.649 884.515 61.001 882.733 60.137V52.604C884.623 53.522 886.783 54.359 889.213 55.115C891.643 55.817 893.965 56.168 896.179 56.168C899.041 56.168 901.12 55.655 902.416 54.629C903.712 53.603 904.36 52.226 904.36 50.498C904.36 49.526 904.09 48.662 903.55 47.906C903.064 47.096 902.119 46.286 900.715 45.476C899.311 44.612 897.286 43.64 894.64 42.56C892.048 41.426 889.861 40.319 888.079 39.239C886.351 38.105 885.001 36.782 884.029 35.27C883.111 33.704 882.652 31.706 882.652 29.276C882.652 25.496 884.11 22.607 887.026 20.609C889.942 18.557 893.749 17.531 898.447 17.531C901.039 17.531 903.442 17.801 905.656 18.341C907.87 18.827 910.03 19.583 912.136 20.609L909.463 27.17C908.221 26.576 906.952 26.09 905.656 25.712C904.414 25.28 903.172 24.929 901.93 24.659C900.688 24.389 899.446 24.254 898.204 24.254C895.882 24.254 894.127 24.659 892.939 25.469C891.751 26.279 891.157 27.413 891.157 28.871C891.157 29.951 891.427 30.869 891.967 31.625C892.561 32.381 893.56 33.137 894.964 33.893C896.422 34.649 898.42 35.54 900.958 36.566C903.496 37.592 905.656 38.645 907.438 39.725C909.22 40.805 910.57 42.128 911.488 43.694C912.406 45.26 912.865 47.258 912.865 49.688ZM938.784 17.531C942.402 17.531 945.534 18.341 948.18 19.961C950.826 21.527 952.851 23.795 954.255 26.765C955.713 29.735 956.442 33.245 956.442 37.295V41.993H928.983C929.091 46.475 930.171 49.904 932.223 52.28C934.275 54.656 937.164 55.844 940.89 55.844C943.536 55.844 945.885 55.601 947.937 55.115C950.043 54.575 952.176 53.792 954.336 52.766V59.894C952.284 60.866 950.178 61.595 948.018 62.081C945.912 62.567 943.347 62.81 940.323 62.81C936.381 62.81 932.871 61.973 929.793 60.299C926.715 58.625 924.312 56.141 922.584 52.847C920.856 49.499 919.992 45.395 919.992 40.535C919.992 35.621 920.775 31.463 922.341 28.061C923.907 24.659 926.094 22.067 928.902 20.285C931.764 18.449 935.058 17.531 938.784 17.531ZM938.784 24.173C936.03 24.173 933.816 25.172 932.142 27.17C930.468 29.168 929.496 32.003 929.226 35.675H947.775C947.775 33.407 947.451 31.409 946.803 29.681C946.155 27.953 945.156 26.603 943.806 25.631C942.51 24.659 940.836 24.173 938.784 24.173ZM1009.67 30.896H1029.67V59.732C1026.76 60.758 1023.76 61.514 1020.68 62C1017.61 62.54 1014.15 62.81 1010.32 62.81C1004.75 62.81 1000.03 61.622 996.14 59.246C992.306 56.87 989.363 53.468 987.311 49.04C985.313 44.612 984.314 39.293 984.314 33.083C984.314 27.035 985.421 21.797 987.635 17.369C989.849 12.941 993.062 9.512 997.274 7.082C1001.49 4.598 1006.59 3.356 1012.58 3.356C1015.66 3.356 1018.58 3.68 1021.33 4.328C1024.14 4.922 1026.7 5.759 1029.03 6.839L1025.87 14.129C1023.98 13.211 1021.87 12.455 1019.55 11.861C1017.28 11.213 1014.91 10.889 1012.42 10.889C1008.43 10.889 1005.02 11.807 1002.22 13.643C999.407 15.425 997.274 17.99 995.816 21.338C994.358 24.632 993.629 28.574 993.629 33.164C993.629 37.484 994.25 41.318 995.492 44.666C996.734 48.014 998.678 50.633 1001.32 52.523C1003.97 54.413 1007.4 55.358 1011.61 55.358C1013.02 55.358 1014.26 55.304 1015.34 55.196C1016.42 55.034 1017.42 54.872 1018.33 54.71C1019.31 54.494 1020.17 54.305 1020.93 54.143V38.429H1009.67V30.896ZM1078.16 40.13C1078.16 43.748 1077.7 46.961 1076.78 49.769C1075.86 52.577 1074.54 54.953 1072.81 56.897C1071.14 58.841 1069.09 60.326 1066.66 61.352C1064.23 62.324 1061.5 62.81 1058.48 62.81C1055.72 62.81 1053.16 62.324 1050.78 61.352C1048.4 60.326 1046.35 58.841 1044.62 56.897C1042.9 54.953 1041.55 52.577 1040.57 49.769C1039.66 46.961 1039.2 43.721 1039.2 40.049C1039.2 35.243 1039.98 31.166 1041.55 27.818C1043.11 24.47 1045.35 21.932 1048.27 20.204C1051.24 18.422 1054.75 17.531 1058.8 17.531C1062.58 17.531 1065.93 18.422 1068.84 20.204C1071.76 21.932 1074.03 24.47 1075.65 27.818C1077.32 31.166 1078.16 35.27 1078.16 40.13ZM1048.27 40.13C1048.27 43.37 1048.62 46.178 1049.32 48.554C1050.08 50.876 1051.21 52.658 1052.72 53.9C1054.29 55.142 1056.26 55.763 1058.64 55.763C1061.07 55.763 1063.04 55.142 1064.55 53.9C1066.12 52.658 1067.25 50.876 1067.95 48.554C1068.71 46.178 1069.09 43.37 1069.09 40.13C1069.09 36.782 1068.71 33.974 1067.95 31.706C1067.2 29.438 1066.06 27.71 1064.55 26.522C1063.04 25.28 1061.04 24.659 1058.56 24.659C1054.94 24.659 1052.32 26.009 1050.7 28.709C1049.08 31.409 1048.27 35.216 1048.27 40.13ZM1096.88 62H1088.14V0.439996H1096.88V62ZM1123.19 62.81C1118.33 62.81 1114.39 60.92 1111.36 57.14C1108.39 53.36 1106.91 47.744 1106.91 40.292C1106.91 32.786 1108.42 27.116 1111.44 23.282C1114.47 19.448 1118.44 17.531 1123.35 17.531C1125.46 17.531 1127.27 17.828 1128.78 18.422C1130.29 18.962 1131.61 19.718 1132.75 20.69C1133.88 21.662 1134.83 22.742 1135.58 23.93H1136.07C1135.96 23.174 1135.83 22.094 1135.66 20.69C1135.56 19.232 1135.5 17.936 1135.5 16.802V0.439996H1144.25V62H1137.36L1135.83 56.168H1135.5C1134.75 57.41 1133.8 58.544 1132.67 59.57C1131.53 60.542 1130.18 61.325 1128.62 61.919C1127.1 62.513 1125.3 62.81 1123.19 62.81ZM1125.54 55.763C1129.32 55.763 1131.96 54.602 1133.48 52.28C1135.04 49.904 1135.83 46.367 1135.83 41.669V40.373C1135.83 35.243 1135.1 31.328 1133.64 28.628C1132.18 25.928 1129.45 24.578 1125.46 24.578C1122.33 24.578 1119.95 26.009 1118.33 28.871C1116.71 31.679 1115.9 35.54 1115.9 40.454C1115.9 45.368 1116.71 49.148 1118.33 51.794C1119.95 54.44 1122.35 55.763 1125.54 55.763ZM1208.09 62H1177.22V4.166H1208.09V11.618H1186.22V28.142H1206.79V35.513H1186.22V54.467H1208.09V62ZM1232.67 62.81C1227.81 62.81 1223.86 60.92 1220.84 57.14C1217.87 53.36 1216.39 47.744 1216.39 40.292C1216.39 32.786 1217.9 27.116 1220.92 23.282C1223.95 19.448 1227.91 17.531 1232.83 17.531C1234.93 17.531 1236.74 17.828 1238.26 18.422C1239.77 18.962 1241.09 19.718 1242.22 20.69C1243.36 21.662 1244.3 22.742 1245.06 23.93H1245.55C1245.44 23.174 1245.3 22.094 1245.14 20.69C1245.03 19.232 1244.98 17.936 1244.98 16.802V0.439996H1253.73V62H1246.84L1245.3 56.168H1244.98C1244.22 57.41 1243.28 58.544 1242.14 59.57C1241.01 60.542 1239.66 61.325 1238.09 61.919C1236.58 62.513 1234.77 62.81 1232.67 62.81ZM1235.02 55.763C1238.8 55.763 1241.44 54.602 1242.95 52.28C1244.52 49.904 1245.3 46.367 1245.3 41.669V40.373C1245.3 35.243 1244.57 31.328 1243.12 28.628C1241.66 25.928 1238.93 24.578 1234.93 24.578C1231.8 24.578 1229.43 26.009 1227.81 28.871C1226.19 31.679 1225.38 35.54 1225.38 40.454C1225.38 45.368 1226.19 49.148 1227.81 51.794C1229.43 54.44 1231.83 55.763 1235.02 55.763ZM1274.86 18.341V62H1266.03V18.341H1274.86ZM1270.57 1.736C1271.87 1.736 1273 2.114 1273.97 2.87C1274.94 3.626 1275.43 4.895 1275.43 6.677C1275.43 8.405 1274.94 9.674 1273.97 10.484C1273 11.24 1271.87 11.618 1270.57 11.618C1269.17 11.618 1267.98 11.24 1267.01 10.484C1266.03 9.674 1265.55 8.405 1265.55 6.677C1265.55 4.895 1266.03 3.626 1267.01 2.87C1267.98 2.114 1269.17 1.736 1270.57 1.736ZM1302.63 55.844C1303.76 55.844 1304.87 55.736 1305.95 55.52C1307.03 55.304 1307.97 55.061 1308.78 54.791V61.271C1307.86 61.703 1306.65 62.054 1305.14 62.324C1303.68 62.648 1302.14 62.81 1300.52 62.81C1298.25 62.81 1296.17 62.405 1294.28 61.595C1292.39 60.785 1290.88 59.381 1289.75 57.383C1288.61 55.385 1288.05 52.604 1288.05 49.04V24.902H1282.46V21.014L1288.45 17.774L1291.45 8.54H1296.88V18.341H1308.46V24.902H1296.88V48.878C1296.88 51.254 1297.42 53.009 1298.5 54.143C1299.58 55.277 1300.95 55.844 1302.63 55.844ZM1325.73 18.341V62H1316.9V18.341H1325.73ZM1321.43 1.736C1322.73 1.736 1323.86 2.114 1324.84 2.87C1325.81 3.626 1326.29 4.895 1326.29 6.677C1326.29 8.405 1325.81 9.674 1324.84 10.484C1323.86 11.24 1322.73 11.618 1321.43 11.618C1320.03 11.618 1318.84 11.24 1317.87 10.484C1316.9 9.674 1316.41 8.405 1316.41 6.677C1316.41 4.895 1316.9 3.626 1317.87 2.87C1318.84 2.114 1320.03 1.736 1321.43 1.736ZM1374.71 40.13C1374.71 43.748 1374.25 46.961 1373.33 49.769C1372.42 52.577 1371.09 54.953 1369.36 56.897C1367.69 58.841 1365.64 60.326 1363.21 61.352C1360.78 62.324 1358.05 62.81 1355.03 62.81C1352.27 62.81 1349.71 62.324 1347.33 61.352C1344.96 60.326 1342.9 58.841 1341.18 56.897C1339.45 54.953 1338.1 52.577 1337.13 49.769C1336.21 46.961 1335.75 43.721 1335.75 40.049C1335.75 35.243 1336.53 31.166 1338.1 27.818C1339.66 24.47 1341.91 21.932 1344.82 20.204C1347.79 18.422 1351.3 17.531 1355.35 17.531C1359.13 17.531 1362.48 18.422 1365.4 20.204C1368.31 21.932 1370.58 24.47 1372.2 27.818C1373.87 31.166 1374.71 35.27 1374.71 40.13ZM1344.82 40.13C1344.82 43.37 1345.17 46.178 1345.87 48.554C1346.63 50.876 1347.76 52.658 1349.28 53.9C1350.84 55.142 1352.81 55.763 1355.19 55.763C1357.62 55.763 1359.59 55.142 1361.1 53.9C1362.67 52.658 1363.8 50.876 1364.5 48.554C1365.26 46.178 1365.64 43.37 1365.64 40.13C1365.64 36.782 1365.26 33.974 1364.5 31.706C1363.75 29.438 1362.61 27.71 1361.1 26.522C1359.59 25.28 1357.59 24.659 1355.11 24.659C1351.49 24.659 1348.87 26.009 1347.25 28.709C1345.63 31.409 1344.82 35.216 1344.82 40.13ZM1406.07 17.531C1410.82 17.531 1414.47 18.8 1417.01 21.338C1419.6 23.876 1420.89 27.953 1420.89 33.569V62H1412.15V34.784C1412.15 31.382 1411.47 28.844 1410.12 27.17C1408.83 25.442 1406.8 24.578 1404.05 24.578C1400 24.578 1397.22 25.901 1395.7 28.547C1394.19 31.193 1393.44 35 1393.44 39.968V62H1384.69V18.341H1391.57L1392.79 24.173H1393.27C1394.19 22.661 1395.3 21.419 1396.59 20.447C1397.89 19.475 1399.35 18.746 1400.97 18.26C1402.59 17.774 1404.29 17.531 1406.07 17.531Z" fill="#F2E7D3"/>
</svg>
