<svg width="207" height="206" viewBox="0 0 207 206" fill="none" xmlns="http://www.w3.org/2000/svg">
<path d="M71.2936 196.078L76.8387 197.522L81.2836 180.451L85.3191 181.502L80.8742 198.573L86.3903 200.009L85.4529 203.609L70.3563 199.678L71.2936 196.078Z" fill="white" fill-opacity="0.6"/>
<path d="M64.6482 173.813L67.0265 174.888L67.2673 177.268L71.9939 176.936C74.108 177.891 75.1835 179.299 75.2205 181.16C75.2472 182.072 75.1399 182.989 74.8985 183.911C74.6306 184.844 74.2866 185.775 73.8665 186.704C73.4381 187.652 73.1159 188.34 72.9 188.769C72.6758 189.217 72.3955 189.716 72.059 190.266C71.7142 190.834 71.3874 191.29 71.0786 191.633C70.7516 191.968 70.3658 192.288 69.9212 192.592C69.4683 192.914 69.002 193.12 68.5221 193.21C67.4467 193.405 66.2528 193.205 64.9407 192.612L61.1955 190.919L57.5429 189.531L64.6482 173.813ZM65.953 180.394L62.6413 187.721L65.3476 188.944C66.35 189.397 67.2246 189.332 67.9716 188.747C68.7003 188.155 69.4106 187.093 70.1026 185.562C70.7864 184.05 71.0861 182.901 71.0017 182.117C70.899 181.324 70.3283 180.693 69.2895 180.224L65.953 180.394Z" fill="white" fill-opacity="0.6"/>
<path d="M46.8303 182.393L43.4647 180.408L52.6875 166.762C53.7515 165.188 55.0108 164.289 56.4656 164.066C57.915 163.814 59.5096 164.276 61.2495 165.452C62.5917 166.359 63.589 167.42 64.2414 168.633C64.5924 169.257 64.7462 169.94 64.7026 170.683C64.6591 171.426 64.3909 172.162 63.8981 172.891L60.7898 171.007C61.1034 170.544 61.1617 170.1 60.9647 169.677C60.7677 169.254 60.2715 168.774 59.4761 168.237C58.6642 167.688 57.983 167.517 57.4325 167.724C56.8654 167.921 56.3299 168.391 55.826 169.137L54.2569 171.191L58.9966 171.678C60.9022 172.966 61.7496 174.481 61.5389 176.221C61.3626 177.767 60.7145 179.369 59.5946 181.026C58.2618 182.998 57.1719 184.289 56.3249 184.9C55.4053 185.582 54.5211 185.925 53.6724 185.931C52.5907 185.924 51.4451 185.512 50.2355 184.694L46.8303 182.393ZM52.458 174.066L48.7958 179.485L51.2565 181.148C52.1844 181.775 53.0352 181.892 53.8087 181.497C54.5823 181.103 55.3498 180.342 56.1114 179.215C56.873 178.088 57.2422 177.167 57.219 176.451C57.168 175.741 56.6868 175.078 55.7755 174.462L52.458 174.066Z" fill="white" fill-opacity="0.6"/>
<path d="M33.9365 144.194L36.4161 147.547L29.4696 152.684L34.1256 158.98L41.0721 153.842L43.5517 157.195L26.3784 169.896L23.8987 166.543L31.1588 161.174L26.5029 154.878L19.2428 160.248L16.7631 156.895L33.9365 144.194Z" fill="white" fill-opacity="0.6"/>
<path d="M21.7727 136.433L26.2702 145.353C27.6632 144.651 28.5731 143.923 28.9999 143.17C29.4177 142.4 29.2934 141.354 28.6271 140.032C28.1949 139.175 27.6074 138.676 26.8646 138.535C26.1038 138.404 25.4735 138.464 24.9734 138.716L23.3932 135.582C25.3041 134.619 26.9671 134.43 28.3823 135.015C29.7884 135.583 30.9192 136.715 31.7746 138.412C32.621 140.09 33.0372 141.516 33.0232 142.687C33.0044 145.093 30.8788 147.363 26.6463 149.497C24.1283 150.767 22.0142 151.15 20.3042 150.646C18.5762 150.151 17.1495 148.787 16.024 146.555C14.0701 142.679 15.2452 139.657 19.5491 137.487C20.0134 137.253 20.7546 136.901 21.7727 136.433ZM23.8456 146.475L20.9553 140.742C19.7766 141.336 19.0319 141.992 18.7213 142.708C18.4106 143.425 18.4894 144.248 18.9576 145.176C19.4168 146.087 20.0628 146.68 20.8956 146.954C21.7014 147.22 22.6848 147.06 23.8456 146.475Z" fill="white" fill-opacity="0.6"/>
<path d="M24.9064 120.688L25.7585 123.47L24.0714 124.928L27.5997 128.868C27.9921 130.149 27.8661 131.411 27.2219 132.654C26.5527 133.884 25.3098 134.777 23.493 135.334L12.5067 138.698L11.3647 134.969L21.5479 131.851C23.3646 131.294 24.0504 130.29 23.6053 128.836L20.7703 126.033L9.66923 129.433L8.52722 125.704L24.9064 120.688Z" fill="white" fill-opacity="0.6"/>
<path d="M15.4072 107.307L16.6761 117.216C18.2234 117.018 19.3237 116.635 19.9769 116.068C20.6276 115.48 20.8589 114.453 20.6709 112.985C20.549 112.032 20.1612 111.366 19.5077 110.986C18.8343 110.609 18.2198 110.455 17.6644 110.526L17.2185 107.045C19.3412 106.773 20.9722 107.149 22.1114 108.173C23.2481 109.176 23.9371 110.62 24.1785 112.505C24.4172 114.37 24.3349 115.852 23.9314 116.953C23.1121 119.215 20.3516 120.647 15.65 121.249C12.8529 121.607 10.7321 121.264 9.28764 120.219C7.82337 119.177 6.93247 117.415 6.61492 114.936C6.06366 110.631 8.17851 108.172 12.9595 107.56C13.4753 107.494 14.2912 107.41 15.4072 107.307ZM14.0163 117.466L13.2008 111.098C11.8915 111.266 10.971 111.636 10.4394 112.208C9.90778 112.78 9.70801 113.582 9.84011 114.613C9.96967 115.625 10.3813 116.399 11.075 116.935C11.7464 117.454 12.7268 117.631 14.0163 117.466Z" fill="white" fill-opacity="0.6"/>
<path d="M6.51126 93.7469L10.302 94.9889C10.1693 95.2835 10.095 95.6206 10.0788 96.0003C10.0364 96.9994 10.4138 98.2465 11.2111 99.7417L23.3201 100.256L23.1546 104.153L6.04006 103.426L6.16356 100.518L7.70041 99.6827L6.16765 95.4738C6.15616 95.2732 6.15763 95.003 6.17206 94.6633C6.18649 94.3236 6.29955 94.0181 6.51126 93.7469Z" fill="white" fill-opacity="0.6"/>
<path d="M18.5297 62.4732L20.086 64.7152L16.9569 67.1113L16.9229 67.5179L19.5201 70.3074L17.556 72.2987L14.9151 68.9743L12.7811 72.6756L10.5386 71.0955L12.5544 68.0904L8.82225 67.8839L9.10521 65.0878L12.8369 65.6174L11.4494 62.3116L13.9692 61.1903L15.2997 65.2814L18.5297 62.4732Z" fill="white" fill-opacity="0.6"/>
<path d="M35.1917 32.7665L31.4061 37.0679L44.6479 48.7222L41.8929 51.8525L28.6511 40.1982L24.8852 44.477L22.0927 42.0193L32.3992 30.3088L35.1917 32.7665Z" fill="white" fill-opacity="0.6"/>
<path d="M58.0651 36.8566L56.0344 38.4962L53.8004 37.6396L51.9695 42.0098C50.1644 43.4673 48.423 43.7938 46.7451 42.9892C45.9188 42.6025 45.1481 42.0938 44.4331 41.4629C43.7211 40.804 43.0447 40.0777 42.4039 39.2841C41.7505 38.4749 41.2809 37.8773 40.9949 37.4913C40.6963 37.0897 40.3771 36.6148 40.0373 36.0666C39.6849 35.5029 39.425 35.0059 39.2575 34.5756C39.1056 34.1327 38.9941 33.6444 38.9229 33.1106C38.8392 32.5612 38.865 32.052 39.0003 31.5829C39.3111 30.5351 40.0266 29.5589 41.147 28.6542L44.3447 26.0722L47.2283 23.4355L58.0651 36.8566ZM51.6007 35.0586L46.5498 28.8032L44.239 30.669C43.3832 31.36 43.0479 32.1705 43.2333 33.1005C43.4342 34.0179 44.0624 35.1301 45.1178 36.4372C46.1607 37.7288 47.0513 38.5134 47.7897 38.7912C48.5437 39.0564 49.3641 38.8309 50.2511 38.1148L51.6007 35.0586Z" fill="white" fill-opacity="0.6"/>
<path d="M58.4255 17.0838L61.7132 14.9723L69.7455 29.3508C70.6722 31.0096 70.9079 32.5388 70.4527 33.9385C70.0248 35.3459 68.8941 36.5617 67.0608 37.5859C65.6465 38.376 64.2508 38.7891 62.8736 38.8254C62.1588 38.8582 61.4795 38.6878 60.8356 38.3144C60.1917 37.941 59.6552 37.3702 59.226 36.6019L62.3073 34.6745C62.5804 35.1634 62.9501 35.415 63.4163 35.4295C63.8826 35.4439 64.5348 35.217 65.3729 34.7488C66.2284 34.2709 66.6875 33.7395 66.7503 33.1546C66.8305 32.56 66.6511 31.8699 66.2122 31.0841L65.0849 28.7586L62.5155 32.7712C60.5076 33.8929 58.774 33.9679 57.3148 32.9961C56.0132 32.1425 54.8747 30.8427 53.8993 29.0967C52.7386 27.0189 52.0764 25.4645 51.9128 24.4333C51.7178 23.3052 51.8088 22.3608 52.1859 21.6004C52.679 20.6377 53.5628 19.8003 54.8374 19.0883L58.4255 17.0838ZM63.3268 25.8576L60.1373 20.1481L57.5445 21.5966C56.5667 22.1428 56.0798 22.8501 56.0838 23.7184C56.0877 24.5867 56.4214 25.6145 57.0846 26.8018C57.7479 27.9891 58.4043 28.7335 59.0538 29.035C59.7111 29.3093 60.5198 29.1783 61.4802 28.6418L63.3268 25.8576Z" fill="white" fill-opacity="0.6"/>
<path d="M98.3388 22.7675L94.2288 23.4722L92.7687 14.9565L85.0513 16.2798L86.5115 24.7955L82.4014 25.5002L78.7916 4.44748L82.9016 3.74275L84.4277 12.6429L92.145 11.3196L90.619 2.41947L94.729 1.71474L98.3388 22.7675Z" fill="white" fill-opacity="0.6"/>
<path d="M110.745 15.4003L100.755 15.4003C100.755 16.9603 100.995 18.1003 101.475 18.8203C101.975 19.5403 102.965 19.9003 104.445 19.9003C105.405 19.9003 106.115 19.6003 106.575 19.0003C107.035 18.3803 107.265 17.7903 107.265 17.2303H110.775C110.775 19.3703 110.195 20.9403 109.035 21.9403C107.895 22.9403 106.375 23.4403 104.475 23.4403C102.595 23.4403 101.135 23.1703 100.095 22.6303C97.9555 21.5303 96.8855 18.6103 96.8855 13.8703C96.8855 11.0503 97.4955 8.99029 98.7155 7.69029C99.9355 6.37029 101.795 5.71029 104.295 5.71029C108.635 5.71029 110.805 8.12029 110.805 12.9403C110.805 13.4603 110.785 14.2803 110.745 15.4003ZM100.845 12.7303H107.265C107.265 11.4103 107.015 10.4503 106.515 9.85029C106.015 9.25029 105.245 8.95029 104.205 8.95029C103.185 8.95029 102.365 9.26029 101.745 9.88029C101.145 10.4803 100.845 11.4303 100.845 12.7303Z" fill="white" fill-opacity="0.6"/>
<path d="M123.393 25.2872L120.525 24.7954L119.983 22.6327L114.876 24.0095C113.556 23.7831 112.485 23.1024 111.665 21.9675C110.868 20.8163 110.631 19.3043 110.952 17.4316L112.894 6.10691L116.737 6.76601L114.938 17.2628C114.616 19.1355 115.205 20.2003 116.703 20.4571L120.482 19.1875L122.444 7.74452L126.288 8.40363L123.393 25.2872Z" fill="white" fill-opacity="0.6"/>
<path d="M139.618 22.8293L130.199 19.5012C129.679 20.9721 129.526 22.1269 129.738 22.9657C129.97 23.8112 130.783 24.4804 132.179 24.9735C133.084 25.2933 133.853 25.2469 134.487 24.8345C135.127 24.4031 135.541 23.9234 135.727 23.3954L139.037 24.5648C138.324 26.5825 137.254 27.8696 135.827 28.426C134.419 28.9891 132.819 28.9542 131.028 28.3212C129.255 27.6949 127.969 26.954 127.168 26.0984C125.517 24.3483 125.481 21.2386 127.06 16.7694C127.999 14.1105 129.26 12.3713 130.844 11.552C132.434 10.7139 134.408 10.7112 136.765 11.5441C140.857 12.9899 142.1 15.9851 140.494 20.5298C140.321 21.0201 140.029 21.7866 139.618 22.8293ZM131.173 17.0137L137.226 19.1525C137.666 17.9079 137.75 16.9194 137.479 16.1871C137.207 15.4548 136.581 14.9155 135.601 14.569C134.639 14.2292 133.762 14.2483 132.971 14.6263C132.206 14.9922 131.606 15.788 131.173 17.0137Z" fill="white" fill-opacity="0.6"/>
<path d="M155.731 20.9905L152.916 23.8162C152.712 23.5651 152.445 23.3469 152.113 23.1616C151.24 22.6739 149.957 22.4494 148.262 22.4882L142.352 33.0691L138.947 31.1671L147.301 16.2124L149.842 17.6316L149.896 19.38L154.344 19.9062C154.528 19.9863 154.769 20.1092 155.066 20.2751C155.363 20.4409 155.584 20.6794 155.731 20.9905Z" fill="white" fill-opacity="0.6"/>
<path d="M178.246 45.8015L175.543 46.1818L174.812 42.3091L174.465 42.0956L170.805 43.1589L169.911 40.5086L174.068 39.6471L171.724 36.0754L174.144 34.7843L175.92 37.9372L177.785 34.6976L180.154 36.2091L178.001 39.3027L181.578 39.5521L181.444 42.3069L177.192 41.6531L178.246 45.8015Z" fill="white" fill-opacity="0.6"/>
<path d="M197.27 74.0535L195.134 68.7367L178.766 75.3139L177.211 71.4446L193.579 64.8674L191.454 59.5785L194.905 58.1914L200.722 72.6665L197.27 74.0535Z" fill="white" fill-opacity="0.6"/>
<path d="M183.32 92.6366L182.771 90.0852L184.541 88.4761L181.463 84.8737C180.974 82.6057 181.467 80.9038 182.941 79.7678C183.658 79.204 184.459 78.7449 185.344 78.3905C186.253 78.0514 187.206 77.7744 188.204 77.5595C189.22 77.3404 189.965 77.19 190.439 77.1084C190.932 77.0227 191.499 76.9514 192.142 76.8948C192.804 76.834 193.365 76.8256 193.824 76.8698C194.288 76.9335 194.774 77.0538 195.283 77.2306C195.811 77.4031 196.254 77.6555 196.612 77.9875C197.408 78.7367 197.958 79.8151 198.261 81.2228L199.127 85.2405L200.183 89.0024L183.32 92.6366ZM187.836 87.6739L195.696 85.98L195.07 83.0767C194.838 82.0014 194.265 81.3371 193.352 81.084C192.442 80.8504 191.166 80.9105 189.524 81.2645C187.901 81.6142 186.799 82.0562 186.219 82.5905C185.643 83.1443 185.475 83.9785 185.715 85.0929L187.836 87.6739Z" fill="white" fill-opacity="0.6"/>
<path d="M200.814 101.86L201.219 105.746L184.764 106.445C182.866 106.526 181.394 106.048 180.349 105.011C179.285 103.995 178.708 102.438 178.619 100.34C178.55 98.7218 178.81 97.2895 179.398 96.0435C179.69 95.3905 180.148 94.8606 180.771 94.4537C181.395 94.0469 182.146 93.8248 183.025 93.7875L183.359 97.4066C182.799 97.4303 182.408 97.6471 182.186 98.057C181.963 98.4668 181.872 99.1513 181.912 100.11C181.954 101.09 182.222 101.739 182.716 102.058C183.211 102.397 183.908 102.548 184.807 102.51L187.391 102.55L184.965 98.4494C184.867 96.1514 185.581 94.5697 187.105 93.7042C188.453 92.9263 190.127 92.4949 192.125 92.41C194.503 92.309 196.189 92.4176 197.183 92.7357C198.278 93.0695 199.081 93.5759 199.59 94.2549C200.228 95.1286 200.577 96.2948 200.639 97.7535L200.814 101.86ZM190.773 102.286L197.307 102.009L197.181 99.0414C197.133 97.9224 196.721 97.1693 195.944 96.7819C195.167 96.3945 194.099 96.2297 192.74 96.2874C191.381 96.3452 190.421 96.5961 189.859 97.0404C189.318 97.5037 189.071 98.2849 189.118 99.3839L190.773 102.286Z" fill="white" fill-opacity="0.6"/>
<path d="M177.769 134.941L178.99 130.954L187.252 133.484L189.544 125.997L181.283 123.467L182.504 119.48L202.928 125.734L201.707 129.721L193.073 127.077L190.78 134.564L199.414 137.208L198.193 141.195L177.769 134.941Z" fill="white" fill-opacity="0.6"/>
<path d="M178.762 149.336L183.26 140.416C181.867 139.713 180.741 139.414 179.882 139.519C179.014 139.641 178.247 140.363 177.58 141.685C177.148 142.542 177.096 143.311 177.425 143.992C177.771 144.682 178.195 145.153 178.695 145.405L177.115 148.539C175.204 147.575 174.063 146.351 173.692 144.865C173.313 143.397 173.55 141.814 174.406 140.118C175.252 138.439 176.151 137.257 177.101 136.571C179.047 135.156 182.136 135.515 186.368 137.649C188.886 138.918 190.451 140.39 191.063 142.065C191.692 143.749 191.444 145.707 190.318 147.939C188.364 151.814 185.236 152.667 180.932 150.497C180.467 150.263 179.744 149.876 178.762 149.336ZM185.603 141.698L182.713 147.431C183.892 148.025 184.861 148.234 185.622 148.057C186.383 147.881 186.998 147.329 187.466 146.4C187.925 145.489 188.017 144.617 187.743 143.785C187.477 142.979 186.764 142.283 185.603 141.698Z" fill="white" fill-opacity="0.6"/>
<path d="M164.24 156.178L165.971 153.839L168.146 154.328L169.216 149.149C170.012 148.072 171.102 147.422 172.485 147.201C173.871 147.008 175.328 147.476 176.856 148.606L186.094 155.438L183.775 158.574L175.212 152.241C173.685 151.111 172.469 151.157 171.565 152.379L170.998 156.325L180.332 163.229L178.013 166.364L164.24 156.178Z" fill="white" fill-opacity="0.6"/>
<path d="M159.13 171.772L166.343 164.86C165.263 163.734 164.301 163.077 163.456 162.889C162.597 162.715 161.633 163.14 160.565 164.164C159.872 164.829 159.567 165.536 159.65 166.288C159.747 167.054 159.989 167.639 160.377 168.043L157.842 170.472C156.362 168.927 155.694 167.392 155.84 165.867C155.971 164.357 156.722 162.944 158.094 161.629C159.451 160.328 160.692 159.513 161.816 159.183C164.123 158.497 166.916 159.865 170.195 163.287C172.147 165.323 173.132 167.232 173.15 169.015C173.183 170.812 172.297 172.575 170.492 174.305C167.359 177.308 164.124 177.07 160.789 173.59C160.429 173.214 159.876 172.609 159.13 171.772ZM168.125 166.85L163.49 171.292C164.404 172.245 165.248 172.765 166.024 172.852C166.801 172.939 167.564 172.623 168.315 171.904C169.051 171.198 169.429 170.407 169.447 169.53C169.465 168.682 169.025 167.788 168.125 166.85Z" fill="white" fill-opacity="0.6"/>
<path d="M153.518 186.989L152.262 183.202C152.578 183.134 152.893 182.993 153.208 182.78C154.037 182.22 154.815 181.175 155.543 179.645L148.756 169.604L151.987 167.42L161.58 181.612L159.169 183.242L157.583 182.503L155.111 186.238C154.956 186.366 154.738 186.526 154.456 186.716C154.175 186.907 153.862 186.997 153.518 186.989Z" fill="white" fill-opacity="0.6"/>
<path d="M121.227 195.922L122.104 193.337L125.892 194.428L126.239 194.214L126.937 190.467L129.706 190.862L128.604 194.962L132.848 194.477L132.911 197.22L129.297 197.386L131.35 200.509L128.934 201.944L127.14 198.629L125.308 201.71L122.908 200.351L125.406 196.849L121.227 195.922Z" fill="white" fill-opacity="0.6"/>
</svg>
