<svg width="35" height="35" viewBox="0 0 35 35" fill="none" xmlns="http://www.w3.org/2000/svg">
<g clip-path="url(#clip0_45_10)">
<path d="M16.0417 5.8335V2.91683C16.0417 2.11475 16.6979 1.4585 17.5 1.4585C18.3021 1.4585 18.9583 2.11475 18.9583 2.91683V5.8335C18.9583 6.63558 18.3021 7.29183 17.5 7.29183C16.6979 7.29183 16.0417 6.63558 16.0417 5.8335ZM26.775 10.2814L28.8312 8.21058C29.4 7.64183 29.4 6.72308 28.8312 6.15433C28.2625 5.58558 27.3437 5.58558 26.775 6.15433L24.7187 8.22516C24.15 8.79391 24.15 9.71266 24.7187 10.2814C25.2875 10.8502 26.2062 10.8502 26.775 10.2814ZM32.0833 16.0418H29.1667C28.3646 16.0418 27.7083 16.6981 27.7083 17.5002C27.7083 18.3022 28.3646 18.9585 29.1667 18.9585H32.0833C32.8854 18.9585 33.5417 18.3022 33.5417 17.5002C33.5417 16.6981 32.8854 16.0418 32.0833 16.0418ZM17.5 27.7085C16.6979 27.7085 16.0417 28.3647 16.0417 29.1668V32.0835C16.0417 32.8856 16.6979 33.5418 17.5 33.5418C18.3021 33.5418 18.9583 32.8856 18.9583 32.0835V29.1668C18.9583 28.3647 18.3021 27.7085 17.5 27.7085ZM8.225 10.2814L6.15416 8.22516C5.58541 7.65641 5.58541 6.72308 6.15416 6.16891C6.72291 5.61475 7.65625 5.60016 8.21042 6.16891L10.2667 8.22516C10.8354 8.79391 10.8354 9.72725 10.2667 10.2814C9.69792 10.8356 8.77916 10.8502 8.225 10.2814ZM24.7187 24.7189C24.15 25.2877 24.15 26.221 24.7187 26.7752L26.775 28.8314C27.3437 29.4002 28.2771 29.4002 28.8312 28.8314C29.4 28.2627 29.4 27.3293 28.8312 26.7752L26.775 24.7189C26.2208 24.1502 25.2875 24.1502 24.7187 24.7189ZM2.91667 18.9585H5.83333C6.63542 18.9585 7.29167 18.3022 7.29167 17.5002C7.29167 16.6981 6.63542 16.0418 5.83333 16.0418H2.91667C2.11458 16.0418 1.45833 16.6981 1.45833 17.5002C1.45833 18.3022 2.11458 18.9585 2.91667 18.9585ZM8.225 28.846L10.2812 26.7897C10.85 26.221 10.85 25.2877 10.2812 24.7335C9.7125 24.1793 8.77916 24.1647 8.225 24.7335L6.16875 26.7897C5.6 27.3585 5.6 28.2918 6.16875 28.846C6.72292 29.4147 7.65625 29.4147 8.225 28.846ZM17.5 8.75016C12.6729 8.75016 8.75 12.6731 8.75 17.5002C8.75 22.3272 12.6729 26.2502 17.5 26.2502C22.3271 26.2502 26.25 22.3272 26.25 17.5002C26.25 12.6731 22.3271 8.75016 17.5 8.75016Z" fill="white"/>
</g>
<defs>
<clipPath id="clip0_45_10">
<rect width="35" height="35" fill="white"/>
</clipPath>
</defs>
</svg>
